<svg xmlns="http://www.w3.org/2000/svg" xmlns:xlink="http://www.w3.org/1999/xlink" width="1920" zoomAndPan="magnify" viewBox="0 0 1440 374.999991" height="500" preserveAspectRatio="xMidYMid meet" version="1.0"><defs><g/><clipPath id="c1e295f302"><rect x="0" width="1186" y="0" height="305"/></clipPath></defs><path fill="#607fa2" d="M 253.710938 180.804688 C 253.710938 182.644531 253.667969 184.484375 253.578125 186.324219 C 253.488281 188.164062 253.351562 190 253.171875 191.832031 C 252.992188 193.664062 252.765625 195.492188 252.496094 197.3125 C 252.226562 199.132812 251.910156 200.949219 251.550781 202.753906 C 251.191406 204.558594 250.789062 206.355469 250.34375 208.140625 C 249.894531 209.929688 249.402344 211.703125 248.871094 213.464844 C 248.335938 215.226562 247.757812 216.972656 247.136719 218.707031 C 246.519531 220.441406 245.855469 222.160156 245.152344 223.859375 C 244.445312 225.5625 243.699219 227.242188 242.914062 228.90625 C 242.125 230.574219 241.300781 232.214844 240.433594 233.839844 C 239.5625 235.464844 238.65625 237.066406 237.710938 238.644531 C 236.765625 240.222656 235.78125 241.78125 234.757812 243.3125 C 233.734375 244.839844 232.675781 246.347656 231.578125 247.824219 C 230.480469 249.304688 229.351562 250.753906 228.183594 252.179688 C 227.015625 253.601562 225.8125 254.996094 224.574219 256.359375 C 223.339844 257.726562 222.070312 259.058594 220.769531 260.359375 C 219.46875 261.660156 218.136719 262.929688 216.769531 264.167969 C 215.40625 265.402344 214.015625 266.605469 212.589844 267.773438 C 211.167969 268.941406 209.71875 270.074219 208.238281 271.171875 C 206.761719 272.269531 205.257812 273.328125 203.726562 274.351562 C 202.195312 275.375 200.640625 276.359375 199.0625 277.304688 C 197.484375 278.253906 195.882812 279.160156 194.257812 280.027344 C 192.632812 280.894531 190.992188 281.722656 189.328125 282.511719 C 187.664062 283.296875 185.980469 284.042969 184.28125 284.75 C 182.578125 285.453125 180.863281 286.117188 179.128906 286.734375 C 177.394531 287.355469 175.648438 287.933594 173.886719 288.46875 C 172.125 289.003906 170.351562 289.492188 168.566406 289.941406 C 166.78125 290.386719 164.984375 290.792969 163.179688 291.152344 C 161.375 291.511719 159.5625 291.824219 157.742188 292.09375 C 155.921875 292.367188 154.09375 292.589844 152.261719 292.769531 C 150.429688 292.953125 148.59375 293.085938 146.757812 293.175781 C 144.917969 293.269531 143.078125 293.3125 141.238281 293.3125 C 139.398438 293.3125 137.558594 293.269531 135.71875 293.175781 C 133.878906 293.085938 132.046875 292.953125 130.214844 292.769531 C 128.382812 292.589844 126.554688 292.367188 124.734375 292.09375 C 122.914062 291.824219 121.101562 291.511719 119.296875 291.152344 C 117.488281 290.792969 115.695312 290.386719 113.910156 289.941406 C 112.125 289.492188 110.351562 289.003906 108.589844 288.46875 C 106.828125 287.933594 105.078125 287.355469 103.347656 286.734375 C 101.613281 286.117188 99.894531 285.453125 98.195312 284.75 C 96.496094 284.042969 94.8125 283.296875 93.148438 282.511719 C 91.484375 281.722656 89.839844 280.894531 88.21875 280.027344 C 86.59375 279.160156 84.992188 278.253906 83.414062 277.304688 C 81.835938 276.359375 80.28125 275.375 78.75 274.351562 C 77.21875 273.328125 75.714844 272.269531 74.238281 271.171875 C 72.757812 270.074219 71.308594 268.941406 69.886719 267.773438 C 68.460938 266.605469 67.070312 265.402344 65.703125 264.167969 C 64.339844 262.929688 63.007812 261.660156 61.707031 260.359375 C 60.40625 259.058594 59.136719 257.726562 57.898438 256.359375 C 56.664062 254.996094 55.460938 253.601562 54.292969 252.179688 C 53.125 250.753906 51.992188 249.304688 50.898438 247.824219 C 49.800781 246.347656 48.742188 244.839844 47.71875 243.3125 C 46.695312 241.78125 45.710938 240.222656 44.765625 238.644531 C 43.820312 237.066406 42.910156 235.464844 42.042969 233.839844 C 41.175781 232.214844 40.347656 230.574219 39.5625 228.90625 C 38.773438 227.242188 38.03125 225.5625 37.324219 223.859375 C 36.621094 222.160156 35.957031 220.441406 35.339844 218.707031 C 34.71875 216.972656 34.140625 215.226562 33.605469 213.464844 C 33.070312 211.703125 32.582031 209.929688 32.132812 208.140625 C 31.6875 206.355469 31.285156 204.558594 30.925781 202.753906 C 30.566406 200.949219 30.25 199.132812 29.980469 197.3125 C 29.710938 195.492188 29.484375 193.664062 29.304688 191.832031 C 29.125 190 28.988281 188.164062 28.898438 186.324219 C 28.808594 184.484375 28.761719 182.644531 28.761719 180.804688 C 28.761719 178.964844 28.808594 177.121094 28.898438 175.285156 C 28.988281 173.445312 29.125 171.609375 29.304688 169.777344 C 29.484375 167.945312 29.710938 166.117188 29.980469 164.296875 C 30.25 162.472656 30.566406 160.660156 30.925781 158.855469 C 31.285156 157.050781 31.6875 155.253906 32.132812 153.46875 C 32.582031 151.679688 33.070312 149.90625 33.605469 148.144531 C 34.140625 146.382812 34.71875 144.636719 35.339844 142.902344 C 35.957031 141.167969 36.621094 139.449219 37.324219 137.75 C 38.03125 136.046875 38.773438 134.367188 39.5625 132.699219 C 40.347656 131.035156 41.175781 129.390625 42.042969 127.769531 C 42.910156 126.144531 43.820312 124.542969 44.765625 122.964844 C 45.710938 121.382812 46.695312 119.828125 47.71875 118.296875 C 48.742188 116.765625 49.800781 115.261719 50.898438 113.78125 C 51.992188 112.304688 53.125 110.851562 54.292969 109.429688 C 55.460938 108.007812 56.664062 106.613281 57.898438 105.25 C 59.136719 103.882812 60.40625 102.550781 61.707031 101.25 C 63.007812 99.945312 64.339844 98.675781 65.703125 97.441406 C 67.070312 96.203125 68.460938 95.003906 69.886719 93.835938 C 71.308594 92.664062 72.757812 91.535156 74.238281 90.4375 C 75.714844 89.339844 77.21875 88.28125 78.75 87.257812 C 80.28125 86.234375 81.835938 85.25 83.414062 84.300781 C 84.992188 83.355469 86.59375 82.449219 88.21875 81.582031 C 89.839844 80.710938 91.484375 79.886719 93.148438 79.097656 C 94.8125 78.3125 96.496094 77.566406 98.195312 76.859375 C 99.894531 76.15625 101.613281 75.492188 103.347656 74.871094 C 105.078125 74.253906 106.828125 73.675781 108.589844 73.140625 C 110.351562 72.605469 112.125 72.113281 113.910156 71.667969 C 115.695312 71.21875 117.488281 70.816406 119.296875 70.457031 C 121.101562 70.097656 122.914062 69.785156 124.734375 69.511719 C 126.554688 69.242188 128.382812 69.019531 130.214844 68.835938 C 132.046875 68.65625 133.878906 68.523438 135.71875 68.429688 C 137.558594 68.339844 139.398438 68.296875 141.238281 68.296875 C 143.078125 68.296875 144.917969 68.339844 146.757812 68.429688 C 148.59375 68.523438 150.429688 68.65625 152.261719 68.835938 C 154.09375 69.019531 155.921875 69.242188 157.742188 69.511719 C 159.5625 69.785156 161.375 70.097656 163.179688 70.457031 C 164.984375 70.816406 166.78125 71.21875 168.566406 71.667969 C 170.351562 72.113281 172.125 72.605469 173.886719 73.140625 C 175.648438 73.675781 177.394531 74.253906 179.128906 74.871094 C 180.863281 75.492188 182.578125 76.15625 184.28125 76.859375 C 185.980469 77.566406 187.664062 78.3125 189.328125 79.097656 C 190.992188 79.886719 192.632812 80.710938 194.257812 81.582031 C 195.882812 82.449219 197.484375 83.355469 199.0625 84.300781 C 200.640625 85.25 202.195312 86.234375 203.726562 87.257812 C 205.257812 88.28125 206.761719 89.339844 208.238281 90.4375 C 209.71875 91.535156 211.167969 92.664062 212.589844 93.835938 C 214.015625 95.003906 215.40625 96.203125 216.769531 97.441406 C 218.136719 98.675781 219.46875 99.945312 220.769531 101.25 C 222.070312 102.550781 223.339844 103.882812 224.574219 105.25 C 225.8125 106.613281 227.015625 108.007812 228.183594 109.429688 C 229.351562 110.851562 230.480469 112.304688 231.578125 113.78125 C 232.675781 115.261719 233.734375 116.765625 234.757812 118.296875 C 235.78125 119.828125 236.765625 121.382812 237.710938 122.964844 C 238.65625 124.542969 239.5625 126.144531 240.433594 127.769531 C 241.300781 129.390625 242.125 131.035156 242.914062 132.699219 C 243.699219 134.367188 244.445312 136.046875 245.152344 137.75 C 245.855469 139.449219 246.519531 141.167969 247.136719 142.902344 C 247.757812 144.636719 248.335938 146.382812 248.871094 148.144531 C 249.402344 149.90625 249.894531 151.679688 250.34375 153.46875 C 250.789062 155.253906 251.191406 157.050781 251.550781 158.855469 C 251.910156 160.660156 252.226562 162.472656 252.496094 164.296875 C 252.765625 166.117188 252.992188 167.945312 253.171875 169.777344 C 253.351562 171.609375 253.488281 173.445312 253.578125 175.285156 C 253.667969 177.121094 253.710938 178.964844 253.710938 180.804688 Z M 253.710938 180.804688 " fill-opacity="1" fill-rule="nonzero"/><path fill="#ffffff" d="M 206.550781 129.511719 L 222.214844 129.511719 L 206.746094 229.390625 L 192.527344 229.390625 L 184.023438 174.433594 L 176.082031 229.390625 L 161.808594 229.390625 L 145.246094 129.511719 L 160.871094 129.511719 L 168.6875 182.996094 L 175.875 129.511719 L 191.507812 129.511719 L 199.316406 182.953125 Z M 206.550781 129.511719 " fill-opacity="1" fill-rule="nonzero"/><path fill="#ffffff" d="M 123.519531 129.511719 L 139.171875 129.511719 L 123.703125 229.390625 L 109.496094 229.390625 L 100.980469 174.433594 L 93.046875 229.390625 L 78.769531 229.390625 L 62.207031 129.511719 L 77.839844 129.511719 L 85.65625 182.996094 L 92.839844 129.511719 L 108.46875 129.511719 L 116.273438 182.953125 Z M 123.519531 129.511719 " fill-opacity="1" fill-rule="nonzero"/><g transform="matrix(1, 0, 0, 1, 254, 32)"><g clip-path="url(#c1e295f302)"><g fill="currentColor" fill-opacity="1"><g transform="translate(0.890019, 237.435972)"><g><path d="M 134.390625 -68.390625 L 151.84375 -184.078125 L 188.625 -184.078125 L 155.890625 0 L 118.59375 0 L 97.09375 -108.46875 L 75.859375 0 L 38.4375 0 L 5.5625 -184.078125 L 42.609375 -184.078125 L 59.921875 -68.515625 L 81.546875 -184.078125 L 112.765625 -184.078125 Z M 134.390625 -68.390625 "/></g></g></g><g fill="currentColor" fill-opacity="1"><g transform="translate(194.808384, 237.435972)"><g><path d="M 109.859375 -79.65625 L 51.96875 -79.65625 L 51.96875 -30.84375 L 120.484375 -30.84375 L 120.484375 0 L 14.796875 0 L 14.796875 -184.078125 L 120.234375 -184.078125 L 120.234375 -153.109375 L 51.96875 -153.109375 L 51.96875 -109.609375 L 109.859375 -109.609375 Z M 109.859375 -79.65625 "/></g></g></g><g fill="currentColor" fill-opacity="1"><g transform="translate(321.853987, 237.435972)"><g><path d="M 14.796875 0 L 14.796875 -184.078125 L 71.6875 -184.078125 C 90.90625 -184.078125 105.503906 -179.796875 115.484375 -171.234375 C 125.472656 -162.679688 130.46875 -150.148438 130.46875 -133.640625 C 130.46875 -124.273438 128.398438 -116.222656 124.265625 -109.484375 C 120.140625 -102.742188 114.5 -97.8125 107.34375 -94.6875 C 115.59375 -92.332031 121.953125 -87.59375 126.421875 -80.46875 C 130.890625 -73.34375 133.125 -64.554688 133.125 -54.109375 C 133.125 -36.242188 128.210938 -22.757812 118.390625 -13.65625 C 108.578125 -4.550781 94.359375 0 75.734375 0 Z M 51.96875 -80.03125 L 51.96875 -30.84375 L 75.734375 -30.84375 C 82.390625 -30.84375 87.441406 -32.90625 90.890625 -37.03125 C 94.347656 -41.164062 96.078125 -47.023438 96.078125 -54.609375 C 96.078125 -71.128906 90.09375 -79.601562 78.125 -80.03125 Z M 51.96875 -107.078125 L 71.296875 -107.078125 C 85.878906 -107.078125 93.171875 -114.625 93.171875 -129.71875 C 93.171875 -138.0625 91.484375 -144.046875 88.109375 -147.671875 C 84.742188 -151.296875 79.269531 -153.109375 71.6875 -153.109375 L 51.96875 -153.109375 Z M 51.96875 -107.078125 "/></g></g></g><g fill="currentColor" fill-opacity="1"><g transform="translate(467.103141, 237.435972)"><g><path d="M 134.390625 -68.390625 L 151.84375 -184.078125 L 188.625 -184.078125 L 155.890625 0 L 118.59375 0 L 97.09375 -108.46875 L 75.859375 0 L 38.4375 0 L 5.5625 -184.078125 L 42.609375 -184.078125 L 59.921875 -68.515625 L 81.546875 -184.078125 L 112.765625 -184.078125 Z M 134.390625 -68.390625 "/></g></g></g><g fill="currentColor" fill-opacity="1"><g transform="translate(661.021506, 237.435972)"><g><path d="M 102.65625 -37.671875 L 51.96875 -37.671875 L 42.09375 0 L 2.78125 0 L 60.3125 -184.078125 L 94.3125 -184.078125 L 152.21875 0 L 112.515625 0 Z M 60.046875 -68.65625 L 94.4375 -68.65625 L 77.25 -134.265625 Z M 60.046875 -68.65625 "/></g></g></g><g fill="currentColor" fill-opacity="1"><g transform="translate(815.62526, 237.435972)"><g><path d="M 92.546875 -48.296875 C 92.546875 -55.796875 90.628906 -61.460938 86.796875 -65.296875 C 82.960938 -69.128906 75.988281 -73.113281 65.875 -77.25 C 47.414062 -84.238281 34.140625 -92.429688 26.046875 -101.828125 C 17.953125 -111.234375 13.90625 -122.34375 13.90625 -135.15625 C 13.90625 -150.65625 19.40625 -163.101562 30.40625 -172.5 C 41.40625 -181.90625 55.375 -186.609375 72.3125 -186.609375 C 83.601562 -186.609375 93.675781 -184.222656 102.53125 -179.453125 C 111.382812 -174.691406 118.191406 -167.972656 122.953125 -159.296875 C 127.710938 -150.617188 130.09375 -140.757812 130.09375 -129.71875 L 93.046875 -129.71875 C 93.046875 -138.3125 91.210938 -144.863281 87.546875 -149.375 C 83.878906 -153.882812 78.59375 -156.140625 71.6875 -156.140625 C 65.195312 -156.140625 60.140625 -154.21875 56.515625 -150.375 C 52.890625 -146.539062 51.078125 -141.378906 51.078125 -134.890625 C 51.078125 -129.835938 53.097656 -125.265625 57.140625 -121.171875 C 61.191406 -117.085938 68.359375 -112.851562 78.640625 -108.46875 C 96.585938 -101.976562 109.628906 -94.015625 117.765625 -84.578125 C 125.898438 -75.140625 129.96875 -63.128906 129.96875 -48.546875 C 129.96875 -32.535156 124.867188 -20.019531 114.671875 -11 C 104.472656 -1.976562 90.609375 2.53125 73.078125 2.53125 C 61.191406 2.53125 50.359375 0.0859375 40.578125 -4.796875 C 30.804688 -9.691406 23.160156 -16.6875 17.640625 -25.78125 C 12.117188 -34.882812 9.359375 -45.632812 9.359375 -58.03125 L 46.65625 -58.03125 C 46.65625 -47.40625 48.71875 -39.691406 52.84375 -34.890625 C 56.976562 -30.085938 63.722656 -27.6875 73.078125 -27.6875 C 86.054688 -27.6875 92.546875 -34.554688 92.546875 -48.296875 Z M 92.546875 -48.296875 "/></g></g></g><g fill="currentColor" fill-opacity="1"><g transform="translate(955.43863, 237.435972)"><g><path d="M 143.875 0 L 106.828125 0 L 106.828125 -78.765625 L 51.96875 -78.765625 L 51.96875 0 L 14.796875 0 L 14.796875 -184.078125 L 51.96875 -184.078125 L 51.96875 -109.609375 L 106.828125 -109.609375 L 106.828125 -184.078125 L 143.875 -184.078125 Z M 143.875 0 "/></g></g></g><g fill="currentColor" fill-opacity="1"><g transform="translate(1114.340448, 237.435972)"><g><path d="M 15.9375 -18.203125 C 15.9375 -23.929688 17.851562 -28.648438 21.6875 -32.359375 C 25.519531 -36.066406 30.507812 -37.921875 36.65625 -37.921875 C 42.644531 -37.921875 47.617188 -36.085938 51.578125 -32.421875 C 55.546875 -28.753906 57.53125 -24.015625 57.53125 -18.203125 C 57.53125 -12.304688 55.523438 -7.566406 51.515625 -3.984375 C 47.515625 -0.398438 42.5625 1.390625 36.65625 1.390625 C 30.675781 1.390625 25.726562 -0.421875 21.8125 -4.046875 C 17.894531 -7.671875 15.9375 -12.390625 15.9375 -18.203125 Z M 15.9375 -18.203125 "/></g></g></g></g></g></svg>